# xmcd
#
# Track frame offsets:
#       150
#       19244
#       35042
#       50356
#       66067
#       80833
#       108885
#       128001
#       146999
#       163063
#       176876
#       203015
#       219366
#       232543
#
# Disc length: 3430 seconds
#
# Revision: 0
# Processed by: cddbd v1.5.2PL0 Copyright (c) Steve Scherf et al.
# Submitted via: WhereIsIt 2010.1026
#
DISCID=c20d640e
DTITLE=Various Artist - Mr Music Country 2010 11
DYEAR=1900
DGENRE=
TTITLE0=Two tons of steel - King of a One Horse Town
TTITLE1=Pete Schlegel - Lonesome On'ry and Mean
TTITLE2=Miss Leslie- - Little Ole Wine Drinl<er Me
TTITLE3=Dale Watson /A Real Country Song (Mr. Dj)
TTITLE4=Chip Taylor - Big River
TTITLE5=The Wailin' Jennys - Calling All Angels
TTITLE6=Johnny Cash - Sunday Morning Coming down
TTITLE7=Heather Myles - Rum and Rodeo
TTITLE8=Waylon Jennings - Me and Paul
TTITLE9=Bobby Floresand Country Minstrels - Be a Good Girl
TTITLE10=Radney Foster - Went for a Ride
TTITLE11=Martina McBride - Independence Day
TTITLE12=Bruce Robison - The Good Life
TTITLE13=Brian Burns - Desperados Waiting for a Train
EXTD=
EXTT0=
EXTT1=
EXTT2=
EXTT3=
EXTT4=
EXTT5=
EXTT6=
EXTT7=
EXTT8=
EXTT9=
EXTT10=
EXTT11=
EXTT12=
EXTT13=
PLAYORDER=
